REM DIRINDEX 1\3,1\4,1\5,1\6,1\2\7,1\2\8,1\2\9,1\10
REM DIRNAME folder01,folder02,folder03,folder04,folder05,folder06,folder07,folder08,folder09,folder10
TITLE ""
FILE "1-54 Level 3-466-478.mp3" MP3
  TRACK 01 AUDIO
    TITLE "0:"
    INDEX 01 00:00:00
  TRACK 02 AUDIO
    TITLE "7:cjc056_1610"
    INDEX 01 00:00:05
  TRACK 03 AUDIO
    TITLE "0:"
    INDEX 01 00:01:15
  TRACK 04 AUDIO
    TITLE "8:cjc056_1611"
    INDEX 01 00:01:30
  TRACK 05 AUDIO
    TITLE "0:"
    INDEX 01 00:02:53
  TRACK 06 AUDIO
    TITLE "9:cjc056_1612"
    INDEX 01 00:02:65
  TRACK 07 AUDIO
    TITLE "0:"
    INDEX 01 00:04:56
  TRACK 08 AUDIO
    TITLE "7:cjc056_1613"
    INDEX 01 00:05:34
  TRACK 09 AUDIO
    TITLE "0:"
    INDEX 01 00:06:33
  TRACK 10 AUDIO
    TITLE "8:cjc056_1614"
    INDEX 01 00:06:41
  TRACK 11 AUDIO
    TITLE "0:"
    INDEX 01 00:07:54
  TRACK 12 AUDIO
    TITLE "9:cjc056_1615"
    INDEX 01 00:07:66
  TRACK 13 AUDIO
    TITLE "0:"
    INDEX 01 00:09:40
  TRACK 14 AUDIO
    TITLE "7:cjc056_1616"
    INDEX 01 00:10:18
  TRACK 15 AUDIO
    TITLE "0:"
    INDEX 01 00:11:31
  TRACK 16 AUDIO
    TITLE "8:cjc056_1617"
    INDEX 01 00:11:46
  TRACK 17 AUDIO
    TITLE "0:"
    INDEX 01 00:13:00
  TRACK 18 AUDIO
    TITLE "9:cjc056_1618"
    INDEX 01 00:13:12
  TRACK 19 AUDIO
    TITLE "0:"
    INDEX 01 00:15:07
  TRACK 20 AUDIO
    TITLE "7:cjc056_1619"
    INDEX 01 00:15:58
  TRACK 21 AUDIO
    TITLE "0:"
    INDEX 01 00:16:61
  TRACK 22 AUDIO
    TITLE "8:cjc056_1620"
    INDEX 01 00:17:00
  TRACK 23 AUDIO
    TITLE "0:"
    INDEX 01 00:18:21
  TRACK 24 AUDIO
    TITLE "9:cjc056_1621"
    INDEX 01 00:18:35
  TRACK 25 AUDIO
    TITLE "0:"
    INDEX 01 00:20:20
  TRACK 26 AUDIO
    TITLE "7:cjc056_1622"
    INDEX 01 00:20:73
  TRACK 27 AUDIO
    TITLE "0:"
    INDEX 01 00:22:03
  TRACK 28 AUDIO
    TITLE "8:cjc056_1623"
    INDEX 01 00:22:19
  TRACK 29 AUDIO
    TITLE "0:"
    INDEX 01 00:23:30
  TRACK 30 AUDIO
    TITLE "9:cjc056_1624"
    INDEX 01 00:23:44
  TRACK 31 AUDIO
    TITLE "0:"
    INDEX 01 00:25:09
  TRACK 32 AUDIO
    TITLE "7:cjc056_1625"
    INDEX 01 00:25:60
  TRACK 33 AUDIO
    TITLE "0:"
    INDEX 01 00:27:22
  TRACK 34 AUDIO
    TITLE "8:cjc056_1626"
    INDEX 01 00:27:36
  TRACK 35 AUDIO
    TITLE "0:"
    INDEX 01 00:28:64
  TRACK 36 AUDIO
    TITLE "9:cjc056_1627"
    INDEX 01 00:29:03
  TRACK 37 AUDIO
    TITLE "0:"
    INDEX 01 00:31:53
  TRACK 38 AUDIO
    TITLE "7:cjc056_1628"
    INDEX 01 00:32:29
  TRACK 39 AUDIO
    TITLE "0:"
    INDEX 01 00:33:22
  TRACK 40 AUDIO
    TITLE "8:cjc056_1629"
    INDEX 01 00:33:36
  TRACK 41 AUDIO
    TITLE "0:"
    INDEX 01 00:34:53
  TRACK 42 AUDIO
    TITLE "9:cjc056_1630"
    INDEX 01 00:34:65
  TRACK 43 AUDIO
    TITLE "0:"
    INDEX 01 00:36:52
  TRACK 44 AUDIO
    TITLE "7:cjc056_1631"
    INDEX 01 00:37:30
  TRACK 45 AUDIO
    TITLE "0:"
    INDEX 01 00:38:30
  TRACK 46 AUDIO
    TITLE "8:cjc056_1632"
    INDEX 01 00:38:43
  TRACK 47 AUDIO
    TITLE "0:"
    INDEX 01 00:39:66
  TRACK 48 AUDIO
    TITLE "9:cjc056_1633"
    INDEX 01 00:40:03
  TRACK 49 AUDIO
    TITLE "0:"
    INDEX 01 00:41:53
  TRACK 50 AUDIO
    TITLE "7:cjc056_1634"
    INDEX 01 00:42:27
  TRACK 51 AUDIO
    TITLE "0:"
    INDEX 01 00:43:31
  TRACK 52 AUDIO
    TITLE "8:cjc056_1635"
    INDEX 01 00:43:42
  TRACK 53 AUDIO
    TITLE "0:"
    INDEX 01 00:44:63
  TRACK 54 AUDIO
    TITLE "9:cjc056_1636"
    INDEX 01 00:44:71
  TRACK 55 AUDIO
    TITLE "0:"
    INDEX 01 00:46:29
  TRACK 56 AUDIO
    TITLE "7:cjc056_1637"
    INDEX 01 00:47:07
  TRACK 57 AUDIO
    TITLE "0:"
    INDEX 01 00:48:14
  TRACK 58 AUDIO
    TITLE "8:cjc056_1638"
    INDEX 01 00:48:30
  TRACK 59 AUDIO
    TITLE "0:"
    INDEX 01 00:49:69
  TRACK 60 AUDIO
    TITLE "9:cjc056_1639"
    INDEX 01 00:50:05
  TRACK 61 AUDIO
    TITLE "0:"
    INDEX 01 00:51:42
  TRACK 62 AUDIO
    TITLE "7:cjc056_1640"
    INDEX 01 00:52:20
  TRACK 63 AUDIO
    TITLE "0:"
    INDEX 01 00:53:23
  TRACK 64 AUDIO
    TITLE "8:cjc056_1641"
    INDEX 01 00:53:35
  TRACK 65 AUDIO
    TITLE "0:"
    INDEX 01 00:54:70
  TRACK 66 AUDIO
    TITLE "9:cjc056_1642"
    INDEX 01 00:55:08
  TRACK 67 AUDIO
    TITLE "0:"
    INDEX 01 00:57:05
  TRACK 68 AUDIO
    TITLE "7:cjc056_1643"
    INDEX 01 00:57:70
  TRACK 69 AUDIO
    TITLE "0:"
    INDEX 01 00:59:02
  TRACK 70 AUDIO
    TITLE "8:cjc056_1644"
    INDEX 01 00:59:18
  TRACK 71 AUDIO
    TITLE "0:"
    INDEX 01 01:00:55
  TRACK 72 AUDIO
    TITLE "9:cjc056_1645"
    INDEX 01 01:00:68
  TRACK 73 AUDIO
    TITLE "0:"
    INDEX 01 01:02:18
  TRACK 74 AUDIO
    TITLE "7:cjc056_1646"
    INDEX 01 01:03:00
  TRACK 75 AUDIO
    TITLE "0:"
    INDEX 01 01:04:21
  TRACK 76 AUDIO
    TITLE "8:cjc056_1647"
    INDEX 01 01:04:35
  TRACK 77 AUDIO
    TITLE "0:"
    INDEX 01 01:05:66
  TRACK 78 AUDIO
    TITLE "9:cjc056_1648"
    INDEX 01 01:06:02
  TRACK 79 AUDIO
    TITLE "0:"
    INDEX 01 01:07:74
  TRACK 80 AUDIO
    TITLE "7:cjc056_1649"
    INDEX 01 01:08:50
  TRACK 81 AUDIO
    TITLE "0:"
    INDEX 01 01:09:57
  TRACK 82 AUDIO
    TITLE "8:cjc056_1650"
    INDEX 01 01:09:71
  TRACK 83 AUDIO
    TITLE "0:"
    INDEX 01 01:11:29
  TRACK 84 AUDIO
    TITLE "9:cjc056_1651"
    INDEX 01 01:11:39
  TRACK 85 AUDIO
    TITLE "0:"
    INDEX 01 01:13:22
